<svg width="105" height="120" viewBox="0 0 105 120" fill="none" xmlns="http://www.w3.org/2000/svg">
  <rect width="105" height="120" fill="#294F60"/>
  <g clip-path="url(#clip0)">
    <path opacity="0.08" transform="translate(17.5, 25) scale(0.171)" d="M-32.8453 227.361C-47.8534 215.879 -56.5724 200.711 -59.0024 181.859C-61.4323 163.007 -57.0806 145.786 -45.9472 130.197C-44.2308 127.954 -42.3893 125.806 -40.4227 123.754C-38.4561 121.702 -36.3645 119.745 -34.1478 117.884L93.4899 16.3584C107.29 5.57635 122.763 0.124242 139.908 0.0021104C157.053 -0.120019 172.504 5.08154 186.261 15.6068L332.59 127.557C346.347 138.082 355.41 151.635 359.776 168.215C364.143 184.794 362.928 201.154 356.132 217.295L291.528 367.045C290.312 369.672 288.985 372.312 287.549 374.968C286.112 377.623 284.536 380.072 282.819 382.316C271.186 397.522 255.876 406.26 236.889 408.53C217.903 410.8 200.781 406.098 185.523 394.425C175.017 386.387 167.359 376.182 162.55 363.809C157.741 351.435 156.709 338.79 159.454 325.872L165.54 296.147C166.197 292.698 165.751 289.393 164.203 286.233C162.656 283.073 160.506 280.44 157.755 278.335L86.4661 223.795C83.7146 221.69 80.6114 220.304 77.1565 219.637C73.7016 218.969 70.3952 219.404 67.2374 220.94L40.1395 234.59C28.3898 240.618 15.9147 242.929 2.71413 241.524C-10.4865 240.119 -22.3396 235.398 -32.8453 227.361Z" fill="#F0EA6E"/>
  </g>
  <rect width="105" height="120" fill="url(#gaming_gradient)"/>
  <defs>
    <clipPath id="clip0">
      <rect x="17" y="25" width="70" height="70"/>
    </clipPath>
    <linearGradient id="gaming_gradient" x1="9" y1="-6" x2="96" y2="126" gradientUnits="userSpaceOnUse">
      <stop stop-color="#ed1b76"/>
      <stop offset="1" stop-color="#0a2835"/>
    </linearGradient>
  </defs>
</svg>
